<svg id="visual" viewBox="0 0 900 600" width="900" height="600" xmlns="http://www.w3.org/2000/svg" xmlns:xlink="http://www.w3.org/1999/xlink" version="1.1"><g stroke-width="1" stroke-linejoin="bevel"><path d="M417 320L402 402L513 376Z" fill="#112e42" stroke="#112e42"></path><path d="M513 376L510 318L417 320Z" fill="#15384f" stroke="#15384f"></path><path d="M417 320L338 410L402 402Z" fill="#1d4e6b" stroke="#1d4e6b"></path><path d="M510 318L488 224L417 320Z" fill="#00101c" stroke="#00101c"></path><path d="M417 320L269 308L338 410Z" fill="#297ea6" stroke="#297ea6"></path><path d="M374 532L526 500L402 402Z" fill="#205a7a" stroke="#205a7a"></path><path d="M402 402L526 500L513 376Z" fill="#15384f" stroke="#15384f"></path><path d="M513 376L582 292L510 318Z" fill="#00101c" stroke="#00101c"></path><path d="M488 224L401 228L417 320Z" fill="#00101c" stroke="#00101c"></path><path d="M621 361L582 292L513 376Z" fill="#0c2435" stroke="#0c2435"></path><path d="M510 318L582 292L488 224Z" fill="#081a28" stroke="#081a28"></path><path d="M526 500L588 464L513 376Z" fill="#19435d" stroke="#19435d"></path><path d="M588 464L621 361L513 376Z" fill="#112e42" stroke="#112e42"></path><path d="M338 410L374 532L402 402Z" fill="#205a7a" stroke="#205a7a"></path><path d="M401 228L269 308L417 320Z" fill="#19435d" stroke="#19435d"></path><path d="M338 410L295 492L374 532Z" fill="#19435d" stroke="#19435d"></path><path d="M234 387L295 492L338 410Z" fill="#081a28" stroke="#081a28"></path><path d="M588 464L670 371L621 361Z" fill="#00101c" stroke="#00101c"></path><path d="M621 361L686 338L582 292Z" fill="#277297" stroke="#277297"></path><path d="M269 308L234 387L338 410Z" fill="#277297" stroke="#277297"></path><path d="M397 69L309 200L401 228Z" fill="#15384f" stroke="#15384f"></path><path d="M401 228L309 200L269 308Z" fill="#15384f" stroke="#15384f"></path><path d="M269 308L193 295L234 387Z" fill="#297ea6" stroke="#297ea6"></path><path d="M264 600L427 600L374 532Z" fill="#277297" stroke="#277297"></path><path d="M374 532L427 600L526 500Z" fill="#00101c" stroke="#00101c"></path><path d="M573 600L662 492L588 464Z" fill="#0c2435" stroke="#0c2435"></path><path d="M681 186L603 190L582 292Z" fill="#081a28" stroke="#081a28"></path><path d="M582 292L603 190L488 224Z" fill="#0c2435" stroke="#0c2435"></path><path d="M488 224L473 68L401 228Z" fill="#15384f" stroke="#15384f"></path><path d="M670 371L686 338L621 361Z" fill="#00101c" stroke="#00101c"></path><path d="M427 600L503 600L526 500Z" fill="#00101c" stroke="#00101c"></path><path d="M588 464L662 492L670 371Z" fill="#205a7a" stroke="#205a7a"></path><path d="M573 600L588 464L526 500Z" fill="#205a7a" stroke="#205a7a"></path><path d="M791 368L764 284L686 338Z" fill="#297ea6" stroke="#297ea6"></path><path d="M503 600L573 600L526 500Z" fill="#15384f" stroke="#15384f"></path><path d="M185 197L193 295L269 308Z" fill="#246688" stroke="#246688"></path><path d="M681 186L589 131L603 190Z" fill="#112e42" stroke="#112e42"></path><path d="M603 190L589 131L488 224Z" fill="#246688" stroke="#246688"></path><path d="M234 387L199 474L295 492Z" fill="#205a7a" stroke="#205a7a"></path><path d="M295 492L264 600L374 532Z" fill="#277297" stroke="#277297"></path><path d="M91 397L199 474L234 387Z" fill="#112e42" stroke="#112e42"></path><path d="M686 338L681 186L582 292Z" fill="#00101c" stroke="#00101c"></path><path d="M199 474L264 600L295 492Z" fill="#15384f" stroke="#15384f"></path><path d="M589 131L473 68L488 224Z" fill="#1d4e6b" stroke="#1d4e6b"></path><path d="M473 68L397 69L401 228Z" fill="#297ea6" stroke="#297ea6"></path><path d="M309 200L185 197L269 308Z" fill="#081a28" stroke="#081a28"></path><path d="M397 69L287 100L309 200Z" fill="#1d4e6b" stroke="#1d4e6b"></path><path d="M287 100L185 197L309 200Z" fill="#205a7a" stroke="#205a7a"></path><path d="M193 295L91 397L234 387Z" fill="#081a28" stroke="#081a28"></path><path d="M791 368L686 338L670 371Z" fill="#246688" stroke="#246688"></path><path d="M686 338L764 284L681 186Z" fill="#00101c" stroke="#00101c"></path><path d="M573 600L687 600L662 492Z" fill="#19435d" stroke="#19435d"></path><path d="M779 471L791 368L670 371Z" fill="#205a7a" stroke="#205a7a"></path><path d="M779 471L670 371L662 492Z" fill="#15384f" stroke="#15384f"></path><path d="M687 600L779 471L662 492Z" fill="#081a28" stroke="#081a28"></path><path d="M135 135L139 205L185 197Z" fill="#081a28" stroke="#081a28"></path><path d="M185 197L139 205L193 295Z" fill="#19435d" stroke="#19435d"></path><path d="M604 0L536 0L589 131Z" fill="#112e42" stroke="#112e42"></path><path d="M536 0L430 0L473 68Z" fill="#00101c" stroke="#00101c"></path><path d="M764 284L762 194L681 186Z" fill="#0c2435" stroke="#0c2435"></path><path d="M900 205L762 194L764 284Z" fill="#205a7a" stroke="#205a7a"></path><path d="M199 474L178 600L264 600Z" fill="#00101c" stroke="#00101c"></path><path d="M89 530L178 600L199 474Z" fill="#19435d" stroke="#19435d"></path><path d="M65 313L91 397L193 295Z" fill="#00101c" stroke="#00101c"></path><path d="M536 0L473 68L589 131Z" fill="#205a7a" stroke="#205a7a"></path><path d="M473 68L430 0L397 69Z" fill="#19435d" stroke="#19435d"></path><path d="M397 69L290 0L287 100Z" fill="#112e42" stroke="#112e42"></path><path d="M681 64L589 131L681 186Z" fill="#0c2435" stroke="#0c2435"></path><path d="M789 82L681 64L681 186Z" fill="#205a7a" stroke="#205a7a"></path><path d="M290 0L187 96L287 100Z" fill="#246688" stroke="#246688"></path><path d="M287 100L187 96L185 197Z" fill="#15384f" stroke="#15384f"></path><path d="M0 297L65 313L0 210Z" fill="#277297" stroke="#277297"></path><path d="M139 205L65 313L193 295Z" fill="#0c2435" stroke="#0c2435"></path><path d="M187 96L135 135L185 197Z" fill="#277297" stroke="#277297"></path><path d="M0 512L89 530L91 397Z" fill="#277297" stroke="#277297"></path><path d="M91 397L89 530L199 474Z" fill="#246688" stroke="#246688"></path><path d="M681 64L604 0L589 131Z" fill="#00101c" stroke="#00101c"></path><path d="M89 530L126 600L178 600Z" fill="#15384f" stroke="#15384f"></path><path d="M430 0L290 0L397 69Z" fill="#00101c" stroke="#00101c"></path><path d="M187 96L131 0L135 135Z" fill="#081a28" stroke="#081a28"></path><path d="M687 600L821 600L779 471Z" fill="#205a7a" stroke="#205a7a"></path><path d="M900 467L900 377L791 368Z" fill="#112e42" stroke="#112e42"></path><path d="M762 194L789 82L681 186Z" fill="#19435d" stroke="#19435d"></path><path d="M681 64L718 0L604 0Z" fill="#19435d" stroke="#19435d"></path><path d="M900 102L789 82L762 194Z" fill="#1d4e6b" stroke="#1d4e6b"></path><path d="M900 282L764 284L791 368Z" fill="#246688" stroke="#246688"></path><path d="M900 467L791 368L779 471Z" fill="#0c2435" stroke="#0c2435"></path><path d="M65 313L0 383L91 397Z" fill="#205a7a" stroke="#205a7a"></path><path d="M89 530L0 600L126 600Z" fill="#15384f" stroke="#15384f"></path><path d="M0 297L0 383L65 313Z" fill="#15384f" stroke="#15384f"></path><path d="M789 82L718 0L681 64Z" fill="#1d4e6b" stroke="#1d4e6b"></path><path d="M900 377L900 282L791 368Z" fill="#00101c" stroke="#00101c"></path><path d="M290 0L184 0L187 96Z" fill="#205a7a" stroke="#205a7a"></path><path d="M0 210L65 313L139 205Z" fill="#277297" stroke="#277297"></path><path d="M821 600L900 467L779 471Z" fill="#246688" stroke="#246688"></path><path d="M0 210L139 205L135 135Z" fill="#112e42" stroke="#112e42"></path><path d="M0 383L0 512L91 397Z" fill="#205a7a" stroke="#205a7a"></path><path d="M900 282L900 205L764 284Z" fill="#277297" stroke="#277297"></path><path d="M789 82L835 0L718 0Z" fill="#112e42" stroke="#112e42"></path><path d="M0 124L0 210L135 135Z" fill="#081a28" stroke="#081a28"></path><path d="M184 0L131 0L187 96Z" fill="#205a7a" stroke="#205a7a"></path><path d="M821 600L900 600L900 467Z" fill="#205a7a" stroke="#205a7a"></path><path d="M0 512L0 600L89 530Z" fill="#1d4e6b" stroke="#1d4e6b"></path><path d="M131 0L0 124L135 135Z" fill="#081a28" stroke="#081a28"></path><path d="M900 205L900 102L762 194Z" fill="#00101c" stroke="#00101c"></path><path d="M900 102L835 0L789 82Z" fill="#1d4e6b" stroke="#1d4e6b"></path><path d="M900 102L900 0L835 0Z" fill="#19435d" stroke="#19435d"></path><path d="M131 0L0 0L0 124Z" fill="#1d4e6b" stroke="#1d4e6b"></path></g></svg>